<svg width="16" height="16" viewBox="0 0 16 16" fill="none" xmlns="http://www.w3.org/2000/svg">
<g clip-path="url(#clip0_9_214)">
<path d="M3.33333 2H12.6733C13.4133 2 13.9933 2.59333 13.9933 3.33333L14 12.6667C14 13.4 13.4133 14 12.6733 14H3.33333C2.6 14 2 13.4 2 12.6667V3.33333C2 2.59333 2.6 2 3.33333 2ZM3.33333 10H6C6 11.1067 6.9 12 8 12C9.1 12 10 11.1067 10 10H12.6733V3.33333H3.33333V10Z" fill="#4FC0D0"/>
</g>
<defs>
<clipPath id="clip0_9_214">
<rect width="16" height="16" fill="white" transform="matrix(-1 0 0 1 16 0)"/>
</clipPath>
</defs>
</svg>
