<svg width="16" height="16" viewBox="0 0 16 16" fill="none" xmlns="http://www.w3.org/2000/svg">
<g clip-path="url(#clip0_9_322)">
<path d="M12.94 4.93999L9.72002 1.71999C9.47335 1.47333 9.13335 1.33333 8.78002 1.33333H4.00002C3.26669 1.33333 2.67335 1.93333 2.67335 2.66666L2.66669 13.3333C2.66669 14.0667 3.26002 14.6667 3.99335 14.6667H12C12.7334 14.6667 13.3334 14.0667 13.3334 13.3333V5.88666C13.3334 5.53333 13.1934 5.19333 12.94 4.93999ZM6.82002 11.5267L5.40669 10.1133C5.14669 9.85333 5.14669 9.43333 5.40669 9.17333C5.66669 8.91333 6.08669 8.91333 6.34669 9.17333L7.28669 10.1133L9.64669 7.75333C9.90669 7.49333 10.3267 7.49333 10.5867 7.75333C10.8467 8.01333 10.8467 8.43333 10.5867 8.69333L7.76002 11.52C7.50669 11.7867 7.08002 11.7867 6.82002 11.5267ZM9.33335 5.99999C8.96669 5.99999 8.66669 5.69999 8.66669 5.33333V2.33333L12.3334 5.99999H9.33335Z" fill="#4FC0D0"/>
</g>
<defs>
<clipPath id="clip0_9_322">
<rect width="16" height="16" fill="white" transform="matrix(-1 0 0 1 16 0)"/>
</clipPath>
</defs>
</svg>
