<svg width="16" height="16" viewBox="0 0 16 16" fill="none" xmlns="http://www.w3.org/2000/svg">
<g clip-path="url(#clip0_17_800)">
<path d="M13.6 4.25H8L7.013 3.36875C6.747 3.13125 6.39 3 6.019 3H2.4C1.623 3 1.007 3.55625 1.007 4.25L1 11.75C1 12.4438 1.623 13 2.4 13H13.6C14.37 13 15 12.4375 15 11.75V5.5C15 4.8125 14.37 4.25 13.6 4.25ZM12.2 9.25H10.8V10.5C10.8 10.8438 10.485 11.125 10.1 11.125C9.715 11.125 9.4 10.8438 9.4 10.5V9.25H8C7.615 9.25 7.3 8.96875 7.3 8.625C7.3 8.28125 7.615 8 8 8H9.4V6.75C9.4 6.40625 9.715 6.125 10.1 6.125C10.485 6.125 10.8 6.40625 10.8 6.75V8H12.2C12.585 8 12.9 8.28125 12.9 8.625C12.9 8.96875 12.585 9.25 12.2 9.25Z" fill="#4FC0D0"/>
</g>
<defs>
<clipPath id="clip0_17_800">
<rect width="16" height="16" fill="white" transform="matrix(-1 0 0 1 16 0)"/>
</clipPath>
</defs>
</svg>
