<svg width="16" height="16" viewBox="0 0 16 16" fill="none" xmlns="http://www.w3.org/2000/svg">
<g clip-path="url(#clip0_53_778)">
<path d="M12 8.66668H8.66665V12C8.66665 12.3667 8.36665 12.6667 7.99998 12.6667C7.63331 12.6667 7.33331 12.3667 7.33331 12V8.66668H3.99998C3.63331 8.66668 3.33331 8.36668 3.33331 8.00001C3.33331 7.63334 3.63331 7.33334 3.99998 7.33334H7.33331V4.00001C7.33331 3.63334 7.63331 3.33334 7.99998 3.33334C8.36665 3.33334 8.66665 3.63334 8.66665 4.00001V7.33334H12C12.3666 7.33334 12.6666 7.63334 12.6666 8.00001C12.6666 8.36668 12.3666 8.66668 12 8.66668Z" fill="#A2FF86"/>
</g>
<defs>
<clipPath id="clip0_53_778">
<rect width="16" height="16" fill="white" transform="matrix(-1 0 0 1 16 0)"/>
</clipPath>
</defs>
</svg>
