<svg width="16" height="16" viewBox="0 0 16 16" fill="none" xmlns="http://www.w3.org/2000/svg">
<g clip-path="url(#clip0_17_688)">
<path d="M8.00002 14C8.7364 14 9.33335 13.4031 9.33335 12.6667C9.33335 11.9303 8.7364 11.3333 8.00002 11.3333C7.26364 11.3333 6.66669 11.9303 6.66669 12.6667C6.66669 13.4031 7.26364 14 8.00002 14Z" fill="#4FC0D0"/>
<path d="M8.00002 2C7.26669 2 6.66669 2.6 6.66669 3.33333V8.66667C6.66669 9.4 7.26669 10 8.00002 10C8.73335 10 9.33335 9.4 9.33335 8.66667V3.33333C9.33335 2.6 8.73335 2 8.00002 2Z" fill="#4FC0D0"/>
</g>
<defs>
<clipPath id="clip0_17_688">
<rect width="16" height="16" fill="white" transform="matrix(-1 0 0 1 16 0)"/>
</clipPath>
</defs>
</svg>
