<svg width="16" height="16" viewBox="0 0 16 16" fill="none" xmlns="http://www.w3.org/2000/svg">
<g clip-path="url(#clip0_9_251)">
<path d="M13.3333 1.33334H2.66665C1.99998 1.33334 1.33331 1.93334 1.33331 2.66668V4.67334C1.33331 5.15334 1.61998 5.56668 1.99998 5.80001V13.3333C1.99998 14.0667 2.73331 14.6667 3.33331 14.6667H12.6666C13.2666 14.6667 14 14.0667 14 13.3333V5.80001C14.38 5.56668 14.6666 5.15334 14.6666 4.67334V2.66668C14.6666 1.93334 14 1.33334 13.3333 1.33334ZM9.33331 9.33334H6.66665C6.29998 9.33334 5.99998 9.03334 5.99998 8.66668C5.99998 8.30001 6.29998 8.00001 6.66665 8.00001H9.33331C9.69998 8.00001 9.99998 8.30001 9.99998 8.66668C9.99998 9.03334 9.69998 9.33334 9.33331 9.33334ZM13.3333 4.66668H2.66665V2.66668H13.3333V4.66668Z" fill="#4FC0D0"/>
</g>
<defs>
<clipPath id="clip0_9_251">
<rect width="16" height="16" fill="white" transform="matrix(-1 0 0 1 16 0)"/>
</clipPath>
</defs>
</svg>
