<svg width="16" height="16" viewBox="0 0 16 16" fill="none" xmlns="http://www.w3.org/2000/svg">
<g clip-path="url(#clip0_9_229)">
<path d="M13.6 2.27273H12.9V1.63636C12.9 1.28636 12.585 1 12.2 1C11.815 1 11.5 1.28636 11.5 1.63636V2.27273H4.5V1.63636C4.5 1.28636 4.185 1 3.8 1C3.415 1 3.1 1.28636 3.1 1.63636V2.27273H2.4C1.63 2.27273 1 2.84545 1 3.54545V13.7273C1 14.4273 1.63 15 2.4 15H13.6C14.37 15 15 14.4273 15 13.7273V3.54545C15 2.84545 14.37 2.27273 13.6 2.27273ZM12.9 13.7273H3.1C2.715 13.7273 2.4 13.4409 2.4 13.0909V5.45455H13.6V13.0909C13.6 13.4409 13.285 13.7273 12.9 13.7273Z" fill="#4FC0D0"/>
</g>
<defs>
<clipPath id="clip0_9_229">
<rect width="16" height="16" fill="white" transform="matrix(-1 0 0 1 16 0)"/>
</clipPath>
</defs>
</svg>
